<svg xmlns="http://www.w3.org/2000/svg" xmlns:xlink="http://www.w3.org/1999/xlink" zoomAndPan="magnify" preserveAspectRatio="xMidYMid meet" version="1.0" viewBox="-23.75 140.16 466.72 142.64"><defs><g/></defs><path fill="#00e7ff" d="M 442.972656 145.8125 L 393.257812 145.59375 L 368.40625 145.542969 C 360.121094 145.542969 351.851562 145.542969 343.585938 145.691406 C 335.289062 145.835938 326.980469 145.835938 318.695312 145.839844 L 293.828125 145.789062 L 244.109375 145.570312 L 245.207031 145.199219 L 148.550781 218.371094 L 148.1875 218.644531 L 147.746094 218.644531 L -23.746094 217.316406 L 147.746094 215.988281 L 146.941406 216.261719 L 243 142.324219 L 243.476562 141.957031 L 244.09375 141.957031 L 293.808594 141.664062 L 318.660156 141.460938 C 326.945312 141.375 335.214844 141.285156 343.480469 141.058594 C 351.777344 140.832031 360.085938 140.746094 368.371094 140.65625 L 393.238281 140.453125 L 442.960938 140.160156 Z M 442.972656 145.8125 " fill-opacity="1" fill-rule="nonzero"/><path fill="#0cd5ea" d="M 388.859375 282.273438 L 185.503906 282.804688 L 184.714844 282.804688 L 184.28125 282.152344 L 120.984375 187.632812 L 121.984375 188.164062 L 81.789062 188.070312 L 61.695312 188.058594 L 51.648438 188.078125 L 49.140625 188.09375 L 47.894531 188.113281 L 47.410156 188.113281 C 46.84375 188.691406 48.457031 187.460938 47.453125 186.878906 L 47.410156 186.878906 C 47.46875 186.878906 47.585938 186.890625 47.679688 186.894531 L 47.988281 186.90625 C 49.648438 186.960938 51.328125 186.988281 53.003906 187.023438 C 54.675781 187.058594 56.355469 187.082031 58.035156 187.136719 L 58.351562 187.148438 C 58.464844 187.148438 58.558594 187.148438 58.707031 187.171875 C 58.742188 187.175781 58.78125 187.179688 58.816406 187.191406 C 59.722656 187.6875 58.269531 188.804688 58.746094 188.289062 C 58.691406 188.289062 58.664062 188.289062 58.632812 188.300781 L 58.457031 188.300781 L 58.132812 188.308594 L 56.871094 188.328125 L 54.355469 188.347656 L 44.304688 188.363281 L 24.207031 188.34375 L -15.992188 188.253906 L 24.203125 187.75 L 44.296875 187.46875 L 54.34375 187.300781 L 56.851562 187.246094 L 58.097656 187.210938 L 58.402344 187.195312 L 58.546875 187.1875 L 58.585938 187.1875 C 59.074219 186.671875 57.695312 187.777344 58.550781 188.265625 L 58.585938 188.265625 C 58.519531 188.265625 58.410156 188.253906 58.308594 188.253906 L 58 188.253906 C 56.335938 188.222656 54.65625 188.222656 52.984375 188.210938 C 51.3125 188.199219 49.628906 188.199219 47.953125 188.171875 L 47.632812 188.171875 C 47.519531 188.171875 47.425781 188.171875 47.277344 188.152344 C 47.238281 188.148438 47.195312 188.144531 47.15625 188.132812 C 46.097656 187.53125 47.792969 186.289062 47.238281 186.867188 C 47.296875 186.867188 47.324219 186.859375 47.355469 186.855469 L 47.53125 186.84375 L 47.855469 186.828125 L 49.121094 186.792969 L 51.636719 186.738281 L 61.6875 186.570312 L 81.785156 186.292969 L 121.972656 185.765625 L 122.605469 185.765625 L 122.96875 186.292969 L 186.714844 280.511719 L 185.488281 279.863281 L 388.839844 278.363281 Z M 388.859375 282.273438 " fill-opacity="1" fill-rule="nonzero"/><path fill="#00e7ff" d="M 282.722656 238.433594 C 282.722656 239.128906 282.65625 239.816406 282.519531 240.5 C 282.382812 241.183594 282.183594 241.84375 281.917969 242.488281 C 281.648438 243.128906 281.324219 243.742188 280.9375 244.320312 C 280.550781 244.898438 280.109375 245.433594 279.621094 245.925781 C 279.128906 246.417969 278.59375 246.855469 278.011719 247.242188 C 277.433594 247.628906 276.824219 247.957031 276.179688 248.222656 C 275.539062 248.488281 274.875 248.6875 274.191406 248.824219 C 273.511719 248.960938 272.820312 249.027344 272.125 249.027344 C 271.429688 249.027344 270.742188 248.960938 270.058594 248.824219 C 269.375 248.6875 268.714844 248.488281 268.070312 248.222656 C 267.425781 247.957031 266.816406 247.628906 266.238281 247.242188 C 265.660156 246.855469 265.125 246.417969 264.632812 245.925781 C 264.140625 245.433594 263.699219 244.898438 263.3125 244.320312 C 262.925781 243.742188 262.601562 243.128906 262.335938 242.488281 C 262.070312 241.84375 261.867188 241.183594 261.730469 240.5 C 261.597656 239.816406 261.527344 239.128906 261.527344 238.433594 C 261.527344 237.738281 261.597656 237.050781 261.730469 236.367188 C 261.867188 235.683594 262.070312 235.023438 262.335938 234.378906 C 262.601562 233.738281 262.925781 233.125 263.3125 232.546875 C 263.699219 231.96875 264.140625 231.433594 264.632812 230.941406 C 265.125 230.449219 265.660156 230.011719 266.238281 229.625 C 266.816406 229.238281 267.425781 228.910156 268.070312 228.644531 C 268.714844 228.378906 269.375 228.179688 270.058594 228.042969 C 270.742188 227.90625 271.429688 227.839844 272.125 227.839844 C 272.820312 227.839844 273.511719 227.90625 274.191406 228.042969 C 274.875 228.179688 275.539062 228.378906 276.179688 228.644531 C 276.824219 228.910156 277.433594 229.238281 278.011719 229.625 C 278.59375 230.011719 279.128906 230.449219 279.617188 230.941406 C 280.109375 231.433594 280.550781 231.96875 280.9375 232.546875 C 281.324219 233.125 281.648438 233.738281 281.917969 234.378906 C 282.183594 235.023438 282.382812 235.683594 282.519531 236.367188 C 282.65625 237.050781 282.722656 237.738281 282.722656 238.433594 Z M 282.722656 238.433594 " fill-opacity="1" fill-rule="nonzero"/><path fill="#0cd5ea" d="M 344.664062 207.621094 C 290.902344 207.730469 237.132812 208.0625 183.363281 208.171875 L 182.574219 208.171875 L 182.140625 207.523438 L 139.707031 144.367188 L 140.707031 144.898438 L -15.988281 144.988281 L 140.6875 142.507812 L 141.320312 142.5 L 141.6875 143.027344 L 184.566406 205.882812 L 183.34375 205.242188 C 237.105469 204.804688 290.867188 204.148438 344.640625 203.71875 Z M 344.664062 207.621094 " fill-opacity="1" fill-rule="nonzero"/><path fill="#0cd5ea" d="M 355.222656 205.75 C 355.222656 206.445312 355.152344 207.132812 355.015625 207.816406 C 354.882812 208.496094 354.679688 209.160156 354.414062 209.804688 C 354.148438 210.445312 353.820312 211.054688 353.433594 211.632812 C 353.046875 212.214844 352.609375 212.75 352.117188 213.238281 C 351.625 213.730469 351.089844 214.171875 350.511719 214.558594 C 349.933594 214.945312 349.320312 215.269531 348.679688 215.535156 C 348.035156 215.804688 347.375 216.003906 346.691406 216.140625 C 346.007812 216.273438 345.320312 216.34375 344.625 216.34375 C 343.929688 216.34375 343.238281 216.273438 342.554688 216.140625 C 341.875 216.003906 341.210938 215.804688 340.566406 215.535156 C 339.925781 215.269531 339.316406 214.945312 338.734375 214.558594 C 338.15625 214.171875 337.621094 213.730469 337.128906 213.238281 C 336.636719 212.75 336.199219 212.214844 335.8125 211.632812 C 335.425781 211.054688 335.097656 210.445312 334.832031 209.804688 C 334.566406 209.160156 334.367188 208.496094 334.230469 207.816406 C 334.09375 207.132812 334.027344 206.445312 334.027344 205.75 C 334.027344 205.054688 334.09375 204.363281 334.230469 203.683594 C 334.367188 203 334.566406 202.335938 334.832031 201.695312 C 335.097656 201.050781 335.425781 200.441406 335.8125 199.863281 C 336.199219 199.285156 336.636719 198.75 337.128906 198.257812 C 337.621094 197.765625 338.15625 197.328125 338.734375 196.941406 C 339.316406 196.554688 339.925781 196.226562 340.566406 195.960938 C 341.210938 195.695312 341.875 195.492188 342.554688 195.359375 C 343.238281 195.222656 343.929688 195.15625 344.625 195.15625 C 345.320312 195.15625 346.007812 195.222656 346.691406 195.359375 C 347.375 195.492188 348.035156 195.695312 348.679688 195.960938 C 349.320312 196.226562 349.933594 196.554688 350.511719 196.941406 C 351.089844 197.328125 351.625 197.765625 352.117188 198.257812 C 352.609375 198.75 353.046875 199.285156 353.433594 199.863281 C 353.820312 200.441406 354.148438 201.050781 354.414062 201.695312 C 354.679688 202.335938 354.882812 203 355.015625 203.683594 C 355.152344 204.363281 355.222656 205.054688 355.222656 205.75 Z M 355.222656 205.75 " fill-opacity="1" fill-rule="nonzero"/><path fill="#00e7ff" d="M 271.527344 241.082031 L -16.0625 239.828125 L 271.507812 236.570312 Z M 271.527344 241.082031 " fill-opacity="1" fill-rule="nonzero"/><g fill="#ffffff" fill-opacity="1"><g transform="translate(221.78848, 198.691144)"><g><path d="M 8.9375 -25.03125 C 7.265625 -25.03125 5.796875 -24.609375 4.4375 -23.671875 C 3.109375 -22.78125 2.25 -21.640625 1.828125 -20.25 C 1.6875 -19.8125 1.609375 -19.390625 1.609375 -18.953125 C 1.609375 -18.59375 1.6875 -18.171875 1.78125 -17.703125 C 1.96875 -17.03125 2.21875 -16.375 2.578125 -15.765625 C 2.890625 -15.265625 3.296875 -14.734375 3.828125 -14.234375 C 4.40625 -13.734375 4.828125 -13.40625 5.15625 -13.125 C 5.515625 -12.875 6.078125 -12.453125 6.859375 -11.875 L 8.578125 -10.6875 L 10.625 -9.265625 C 10.765625 -9.15625 11.125 -8.875 11.703125 -8.4375 C 12.296875 -8.015625 12.734375 -7.6875 12.984375 -7.46875 C 13.90625 -6.6875 14.375 -6.015625 14.375 -5.359375 C 14.375 -4.359375 13.875 -3.578125 12.734375 -2.859375 C 11.625 -2.1875 10.296875 -1.828125 8.734375 -1.828125 C 8.625 -1.828125 8.46875 -1.828125 8.328125 -1.828125 C 6.46875 -1.890625 4.9375 -2.4375 3.796875 -3.390625 C 3.078125 -4.046875 2.578125 -4.75 2.328125 -5.515625 C 2.109375 -6.296875 1.96875 -7.296875 1.96875 -8.515625 L 1.078125 -8.515625 L 1.078125 0 L 1.96875 0 L 1.96875 -1.578125 C 1.96875 -1.78125 2 -1.9375 2.03125 -2 C 2.140625 -2.21875 2.359375 -2.25 2.640625 -2.140625 C 2.75 -2.140625 3 -2 3.4375 -1.78125 C 4.90625 -1 5.96875 -0.5 6.65625 -0.328125 C 7.375 -0.140625 8.078125 -0.03125 8.796875 0 C 8.9375 0 9.046875 0 9.1875 0 C 11.296875 0 13.09375 -0.578125 14.59375 -1.75 C 16.125 -2.96875 16.921875 -4.4375 16.984375 -6.15625 C 16.921875 -7.4375 16.484375 -8.578125 15.625 -9.578125 C 15.015625 -10.375 13.765625 -11.4375 11.90625 -12.734375 L 10.15625 -13.953125 L 8.328125 -15.203125 C 8.125 -15.375 7.875 -15.59375 7.4375 -15.875 C 7.046875 -16.171875 6.6875 -16.421875 6.359375 -16.671875 C 6.078125 -16.953125 5.796875 -17.203125 5.515625 -17.421875 C 5.046875 -17.921875 4.6875 -18.390625 4.46875 -18.8125 C 4.328125 -19.171875 4.25 -19.5 4.25 -19.8125 C 4.25 -20.09375 4.328125 -20.390625 4.4375 -20.75 C 5 -22.421875 6.65625 -23.25 9.328125 -23.25 C 9.515625 -23.25 9.6875 -23.25 9.828125 -23.25 C 11.703125 -23.171875 13.15625 -22.5625 14.203125 -21.5 C 14.59375 -21.140625 14.84375 -20.703125 14.984375 -20.203125 C 15.171875 -19.78125 15.265625 -18.984375 15.3125 -17.84375 L 16.203125 -17.84375 L 16.015625 -25.03125 L 15.125 -25.03125 C 15.125 -24.0625 15.015625 -23.5 14.765625 -23.359375 C 14.734375 -23.359375 14.65625 -23.3125 14.59375 -23.3125 C 14.484375 -23.3125 13.984375 -23.53125 13.125 -23.96875 C 11.984375 -24.640625 10.734375 -25 9.328125 -25.03125 C 9.234375 -25.03125 9.125 -25.03125 8.984375 -25.03125 Z M 8.9375 -25.03125 "/></g></g></g><g fill="#ffffff" fill-opacity="1"><g transform="translate(239.846551, 198.691144)"><g><path d="M 1.078125 -25.03125 L 1.078125 -24.140625 C 1.96875 -24.109375 2.578125 -23.890625 2.890625 -23.46875 C 3.046875 -23.3125 3.21875 -22.96875 3.46875 -22.359375 L 12.234375 0 L 17.984375 -14.8125 L 23.78125 0 L 29.296875 0 L 29.296875 -0.890625 C 28.328125 -0.9375 27.6875 -1.03125 27.359375 -1.25 C 27.140625 -1.390625 26.9375 -1.6875 26.75 -2.03125 L 24.75 -6.90625 L 18.921875 -22.359375 C 18.734375 -22.8125 18.640625 -23.171875 18.640625 -23.390625 C 18.640625 -23.5 18.671875 -23.5625 18.671875 -23.640625 C 18.8125 -23.96875 19.171875 -24.140625 19.8125 -24.140625 L 19.8125 -25.03125 L 12.65625 -25.03125 L 12.65625 -24.140625 C 13.515625 -24.109375 14.125 -23.890625 14.453125 -23.46875 C 14.59375 -23.3125 14.765625 -22.96875 15.0625 -22.359375 L 17.0625 -17.203125 L 13.203125 -6.90625 L 7.375 -22.359375 C 7.1875 -22.8125 7.078125 -23.171875 7.078125 -23.390625 C 7.078125 -23.5 7.125 -23.609375 7.125 -23.671875 C 7.265625 -23.96875 7.625 -24.140625 8.21875 -24.140625 L 8.21875 -25.03125 Z M 1.078125 -25.03125 "/></g></g></g><g fill="#ffffff" fill-opacity="1"><g transform="translate(270.169806, 198.691144)"><g><path d="M 2.859375 -25.03125 L 1.078125 -25.03125 L 1.078125 -24.140625 C 1.9375 -24.140625 2.4375 -24.0625 2.609375 -23.859375 C 2.796875 -23.671875 2.859375 -23.28125 2.859375 -22.71875 L 2.859375 -2.078125 C 2.859375 -1.640625 2.75 -1.328125 2.546875 -1.140625 C 2.328125 -1 1.859375 -0.890625 1.078125 -0.890625 L 1.078125 0 L 8.21875 0 L 8.21875 -0.890625 C 7.4375 -0.890625 6.9375 -0.96875 6.71875 -1.109375 C 6.546875 -1.25 6.4375 -1.578125 6.4375 -2.078125 L 6.4375 -22.671875 C 6.4375 -23.3125 6.546875 -23.75 6.765625 -23.890625 C 6.9375 -24.0625 7.4375 -24.140625 8.21875 -24.140625 L 8.21875 -25.03125 Z M 2.859375 -25.03125 "/></g></g></g><g fill="#ffffff" fill-opacity="1"><g transform="translate(279.467033, 198.691144)"><g><path d="M 17.734375 -25.03125 L 1.078125 -25.03125 L 1.078125 -24.140625 L 1.109375 -24.140625 C 1.75 -24.140625 2.1875 -24.109375 2.46875 -23.96875 C 2.75 -23.8125 2.890625 -23.609375 2.890625 -23.25 L 2.890625 -20.75 L 3.796875 -20.75 C 3.828125 -21.890625 4 -22.609375 4.359375 -22.890625 C 4.6875 -23.140625 5.40625 -23.25 6.46875 -23.25 L 15.3125 -23.25 C 15.84375 -23.25 16.234375 -23.109375 16.453125 -22.75 C 16.734375 -22.390625 16.84375 -21.703125 16.84375 -20.703125 L 17.734375 -20.703125 Z M 2.890625 -16.09375 L 2.890625 -1.78125 C 2.890625 -1.5 2.796875 -1.28125 2.546875 -1.140625 C 2.28125 -1 1.828125 -0.890625 1.1875 -0.890625 L 1.1875 0 L 8.328125 0 L 8.328125 -0.890625 C 7.46875 -0.890625 6.9375 -1 6.765625 -1.140625 C 6.609375 -1.28125 6.515625 -1.5 6.46875 -1.78125 L 6.46875 -11.625 L 13.515625 -11.625 C 14.3125 -11.625 14.84375 -11.484375 15.125 -11.125 C 15.453125 -10.765625 15.59375 -10.046875 15.59375 -8.9375 L 16.484375 -8.9375 L 16.484375 -16.09375 L 15.59375 -16.09375 C 15.59375 -14.984375 15.484375 -14.265625 15.171875 -13.90625 C 14.875 -13.59375 14.3125 -13.40625 13.484375 -13.40625 L 6.46875 -13.40625 C 5.40625 -13.40625 4.65625 -13.65625 4.296875 -14.09375 C 4 -14.484375 3.828125 -15.171875 3.796875 -16.09375 Z M 2.890625 -16.09375 "/></g></g></g><g fill="#ffffff" fill-opacity="1"><g transform="translate(298.276033, 198.691144)"><g><path d="M 1.078125 -25.03125 L 1.078125 -20.703125 L 1.96875 -20.703125 C 1.96875 -21.921875 2.109375 -22.609375 2.328125 -22.859375 C 2.578125 -23.140625 3.078125 -23.25 3.796875 -23.25 L 8.875 -23.25 C 8.90625 -23.109375 8.90625 -22.921875 8.90625 -22.71875 L 8.90625 -2.078125 C 8.90625 -1.640625 8.796875 -1.328125 8.546875 -1.140625 C 8.328125 -1 7.875 -0.890625 7.125 -0.890625 L 7.125 0 L 14.265625 0 L 14.265625 -0.890625 C 13.453125 -0.890625 12.984375 -0.96875 12.765625 -1.109375 C 12.59375 -1.25 12.484375 -1.578125 12.484375 -2.078125 L 12.484375 -22.671875 C 12.484375 -22.921875 12.515625 -23.109375 12.515625 -23.25 L 17.53125 -23.25 C 18.3125 -23.25 18.84375 -23.109375 19.0625 -22.8125 C 19.28125 -22.5625 19.390625 -21.859375 19.390625 -20.703125 L 20.28125 -20.703125 L 20.28125 -25.03125 Z M 1.078125 -25.03125 "/></g></g></g></svg>